# xmcd
#
# Track frame offsets: 
#        150
#        10800
#        20250
#        29175
#        38775
#        47625
#        58500
#        67800
#        77175
#        88275
#        97575
#        108150
#        115725
#        124950
#        133650
#        142875
#        152400
#        161550
#        171750
#        182250
#        192600
#
# Disc length: 2711 seconds
#
# Revision: 0
# Processed by: cddbd v1.5PL3 Copyright (c) Steve Scherf et al.
# Submitted via: ExactAudioCopy v0.95a5
#
DISCID=0b0a9515
DTITLE=Fats Domino - The Golden Hits of Fats Domino
DYEAR=1990
DGENRE=Blues
TTITLE0=Blueberry Hill
TTITLE1=I'm Walkin'
TTITLE2=Walking to New Orleans
TTITLE3=My Blue Heaven
TTITLE4=I Hear You Knocking
TTITLE5=Jambalaya (On The Bayou)
TTITLE6=I'm In Love Again
TTITLE7=I'm Ready
TTITLE8=Ain't That A Shame
TTITLE9=I'm Gonna Be A Wheel Some Day
TTITLE10=I Want To Walk You Home
TTITLE11=Whole Lotta Loving
TTITLE12=Let The Four Winds Blow
TTITLE13=Valley Of Tears
TTITLE14=Be My Guest
TTITLE15=Bo Weevil
TTITLE16=The Big Beat
TTITLE17=You Win Again
TTITLE18=When My Dreamboat Comes Home
TTITLE19=Blue Monday
TTITLE20=When The Saint's Go Marching In
EXTD=
EXTT0=
EXTT1=
EXTT2=
EXTT3=
EXTT4=
EXTT5=
EXTT6=
EXTT7=
EXTT8=
EXTT9=
EXTT10=
EXTT11=
EXTT12=
EXTT13=
EXTT14=
EXTT15=
EXTT16=
EXTT17=
EXTT18=
EXTT19=
EXTT20=
PLAYORDER=
